<?xml version="1.0" standalone="no"?><svg xmlns="http://www.w3.org/2000/svg" viewBox="0 0 1440 320"><path fill="#000000" fill-opacity="1" d="M0,192L18.5,170.7C36.9,149,74,107,111,128C147.7,149,185,235,222,256C258.5,277,295,235,332,218.7C369.2,203,406,213,443,208C480,203,517,181,554,165.3C590.8,149,628,139,665,149.3C701.5,160,738,192,775,176C812.3,160,849,96,886,74.7C923.1,53,960,75,997,74.7C1033.8,75,1071,53,1108,48C1144.6,43,1182,53,1218,69.3C1255.4,85,1292,107,1329,101.3C1366.2,96,1403,64,1422,48L1440,32L1440,320L1421.5,320C1403.1,320,1366,320,1329,320C1292.3,320,1255,320,1218,320C1181.5,320,1145,320,1108,320C1070.8,320,1034,320,997,320C960,320,923,320,886,320C849.2,320,812,320,775,320C738.5,320,702,320,665,320C627.7,320,591,320,554,320C516.9,320,480,320,443,320C406.2,320,369,320,332,320C295.4,320,258,320,222,320C184.6,320,148,320,111,320C73.8,320,37,320,18,320L0,320Z"></path></svg>